<?xml version="1.0" encoding="UTF-8" standalone="no"?>
<svg
   xmlns:dc="http://purl.org/dc/elements/1.1/"
   xmlns:cc="http://creativecommons.org/ns#"
   xmlns:rdf="http://www.w3.org/1999/02/22-rdf-syntax-ns#"
   xmlns:svg="http://www.w3.org/2000/svg"
   xmlns="http://www.w3.org/2000/svg"
   xmlns:sodipodi="http://sodipodi.sourceforge.net/DTD/sodipodi-0.dtd"
   xmlns:inkscape="http://www.inkscape.org/namespaces/inkscape"
   width="210mm"
   height="297mm"
   viewBox="0 0 210 297"
   version="1.1"
   id="svg45"
   inkscape:version="1.0 (4035a4fb49, 2020-05-01)"
   sodipodi:docname="basettaLaser.svg">
  <defs
     id="defs39" />
  <sodipodi:namedview
     id="base"
     pagecolor="#ffffff"
     bordercolor="#666666"
     borderopacity="1.0"
     inkscape:pageopacity="0.0"
     inkscape:pageshadow="2"
     inkscape:zoom="0.61098079"
     inkscape:cx="295.36211"
     inkscape:cy="381.24366"
     inkscape:document-units="mm"
     inkscape:current-layer="layer1"
     inkscape:document-rotation="0"
     showgrid="false"
     inkscape:window-width="1280"
     inkscape:window-height="657"
     inkscape:window-x="-8"
     inkscape:window-y="-8"
     inkscape:window-maximized="1"
     showborder="false"
     showguides="false"
     inkscape:guide-bbox="true"
     inkscape:snap-bbox="true"
     inkscape:bbox-nodes="true"
     inkscape:bbox-paths="true"
     inkscape:snap-bbox-edge-midpoints="true"
     inkscape:snap-bbox-midpoints="true"
     inkscape:snap-global="false">
    <sodipodi:guide
       position="140.7137,110.48276"
       orientation="0,-1"
       id="guide79" />
    <sodipodi:guide
       position="17.655932,192.78276"
       orientation="0,-1"
       id="guide81" />
    <sodipodi:guide
       position="81.25812,285.38274"
       orientation="1,0"
       id="guide83" />
    <sodipodi:guide
       position="130.33723,127.4651"
       orientation="0,-1"
       id="guide104" />
    <sodipodi:guide
       position="16.255932,202.88276"
       orientation="0,-1"
       id="guide106" />
    <sodipodi:guide
       id="guide62"
       orientation="1,0"
       position="-6.5288072,281.44953" />
    <sodipodi:guide
       id="guide64"
       orientation="1,0"
       position="-9.4956516,276.54955" />
    <sodipodi:guide
       id="guide74"
       orientation="0,-1"
       position="-6.5288072,313.04169" />
    <sodipodi:guide
       id="guide80"
       orientation="0,-1"
       position="-13.588086,317.99169" />
    <sodipodi:guide
       id="guide82"
       orientation="0,-1"
       position="-13.588086,308.09169" />
    <sodipodi:guide
       id="guide84"
       orientation="0,-1"
       position="-5.1673003,320.79159" />
    <sodipodi:guide
       id="guide86"
       orientation="1,0"
       position="4.8136987,134.83863" />
    <sodipodi:guide
       id="guide88"
       orientation="0,-1"
       position="-1.798986,305.29174" />
    <sodipodi:guide
       id="guide1008"
       orientation="0,-1"
       position="33.447971,211.24305" />
    <sodipodi:guide
       id="guide1025"
       orientation="1,0"
       position="51.358119,266.14306" />
    <sodipodi:guide
       id="guide1027"
       orientation="0,-1"
       position="17.755932,268.40039" />
    <sodipodi:guide
       id="guide1029"
       orientation="1,0"
       position="111.25812,255.4965" />
    <sodipodi:guide
       id="guide1048"
       orientation="1,0"
       position="70.258124,221.34806" />
    <sodipodi:guide
       id="guide1065"
       orientation="0,-1"
       position="129.27719,238.05753" />
    <sodipodi:guide
       id="guide1067"
       orientation="0,-1"
       position="128.93723,117.3651" />
    <sodipodi:guide
       id="guide1069"
       orientation="1,0"
       position="14.855932,122.46511" />
    <sodipodi:guide
       id="guide1073"
       orientation="1,0"
       position="159.73135,252.22354" />
    <sodipodi:guide
       position="146.58822,282.58824"
       orientation="0,-1"
       id="guide67" />
  </sodipodi:namedview>
  <metadata
     id="metadata42">
    <rdf:RDF>
      <cc:Work
         rdf:about="">
        <dc:format>image/svg+xml</dc:format>
        <dc:type
           rdf:resource="http://purl.org/dc/dcmitype/StillImage" />
        <dc:title />
      </cc:Work>
    </rdf:RDF>
  </metadata>
  <g
     inkscape:label="Livello 1"
     inkscape:groupmode="layer"
     id="layer1">
    <rect
       y="11.717261"
       x="4.9136987"
       height="174.79999"
       width="164.8"
       id="rect52"
       style="opacity:0.61;fill:none;stroke:#000000;stroke-width:0.2" />
    <rect
       style="opacity:0.61;fill:none;stroke:#00ff00;stroke-width:0.2"
       id="rect163"
       width="2.8"
       height="10"
       x="14.955933"
       y="169.5349" />
    <rect
       y="169.5349"
       x="156.83134"
       height="10"
       width="2.8"
       id="rect163-6"
       style="opacity:0.61;fill:none;stroke:#00ff00;stroke-width:0.2" />
    <rect
       y="18.599611"
       x="14.955932"
       height="9.999999"
       width="2.8"
       id="rect163-2"
       style="opacity:0.61;fill:none;stroke:#00ff00;stroke-width:0.2"
       ry="0" />
    <rect
       y="94.217239"
       x="14.855932"
       height="10"
       width="2.8"
       id="rect163-2-9-0"
       style="opacity:0.61;fill:none;stroke:#00ff00;stroke-width:0.2" />
    <rect
       style="fill:none;stroke:#ff00ff;stroke-width:0.1;stroke-miterlimit:4;stroke-dasharray:none"
       id="rect6"
       height="0.34988782"
       width="1.3878703"
       class="st0"
       y="153.97006"
       x="21.331127" />
    <path
       style="fill:none;stroke:#ff00ff;stroke-width:0.1;stroke-miterlimit:4;stroke-dasharray:none"
       id="path8"
       d="m 23.728633,109.83871 c -0.80113,-0.13544 -1.69253,-0.23702 -2.96756,0 -3.71227,0.6772 -6.51058,3.95035 -6.51058,7.85555 0,4.4131 3.57687,8.00227 8,8.00227 4.41185,0 8,-3.57788 8,-8.00227 -0.0113,-3.9052 -2.80959,-7.15577 -6.52186,-7.85555 m -4.62624,10.99325 h -0.68829 v -0.68849 h 0.68829 z m 0,-1.03837 h -0.68829 v -3.79234 h 0.68829 z m 0.6883,-8.99551 h 0.68829 l -0.0113,4.15351 h 0.34979 v -4.15351 h 0.68829 v 4.15351 h 0.34979 l 0.0113,-4.15351 h 0.68829 v 4.842 h -2.76445 z m 4.84062,13.8375 h -0.6883 v -0.68849 h -1.38787 v 0.68849 h -0.68829 v -0.68849 h -1.37659 v 0.68849 h -0.68829 v -1.38826 h 4.84062 v 1.38826 z m 0,-2.76524 h -2.07617 v 0.34989 h 2.07617 v 0.68849 h -2.07617 v -0.34989 h -0.68829 v 0.34989 h -2.07616 v -0.68849 h 2.07616 v -0.34989 h -2.07616 v -0.68849 h 4.84062 z m 0,-1.03838 h -4.84062 v -0.68849 h 2.07616 v -0.34988 h -2.07616 v -0.68849 h 4.84062 z m 0,-2.07675 h -4.84062 v -0.68849 h 4.15232 v -0.34989 h -4.15232 v -0.68849 h 4.15232 v -0.34988 l -4.15232,0.0113 v -0.68849 h 4.84062 z m 0,-4.842 h -1.03808 v 1.03838 h 1.03808 v 0.68849 h -1.72638 v -4.842 h 1.72638 z m 1.38787,6.91875 h -0.6883 v -0.68849 h 0.6883 z m 0,-1.03837 h -0.6883 v -3.79234 h 0.6883 z"
       class="st0" />
    <path
       transform="rotate(90)"
       style="opacity:0.61;fill:none;stroke:#00ff00;stroke-width:0.2"
       id="path108"
       sodipodi:type="arc"
       sodipodi:cx="87.583855"
       sodipodi:cy="-83.171951"
       sodipodi:rx="1.3999946"
       sodipodi:ry="1.3999989"
       sodipodi:start="1.5626928"
       sodipodi:end="1.5505243"
       sodipodi:open="true"
       sodipodi:arc-type="arc"
       d="m 87.595199,-81.771998 a 1.3999946,1.3999989 0 0 1 -1.411252,-1.38435 1.3999946,1.3999989 0 0 1 1.380046,-1.415461 1.3999946,1.3999989 0 0 1 1.419648,1.375737 1.3999946,1.3999989 0 0 1 -1.371408,1.423832" />
    <path
       transform="rotate(90)"
       sodipodi:arc-type="arc"
       sodipodi:open="true"
       sodipodi:end="1.5505243"
       sodipodi:start="1.5626928"
       sodipodi:ry="1.3999989"
       sodipodi:rx="1.3999946"
       sodipodi:cy="-82.807205"
       sodipodi:cx="26.694511"
       sodipodi:type="arc"
       id="path108-6"
       style="opacity:0.61;fill:none;stroke:#00ff00;stroke-width:0.2"
       d="m 26.705856,-81.407252 a 1.3999946,1.3999989 0 0 1 -1.411252,-1.38435 1.3999946,1.3999989 0 0 1 1.380045,-1.415461 1.3999946,1.3999989 0 0 1 1.419649,1.375737 1.3999946,1.3999989 0 0 1 -1.371408,1.423832" />
    <path
       transform="rotate(90)"
       style="opacity:0.61;fill:none;stroke:#00ff00;stroke-width:0.2"
       id="path108-6-0"
       sodipodi:type="arc"
       sodipodi:cx="59.119133"
       sodipodi:cy="-130.29964"
       sodipodi:rx="1.3999946"
       sodipodi:ry="1.3999989"
       sodipodi:start="1.5626928"
       sodipodi:end="1.5505243"
       sodipodi:open="true"
       sodipodi:arc-type="arc"
       d="m 59.130478,-128.89968 a 1.3999946,1.3999989 0 0 1 -1.411253,-1.38435 1.3999946,1.3999989 0 0 1 1.380046,-1.41546 1.3999946,1.3999989 0 0 1 1.419649,1.37573 1.3999946,1.3999989 0 0 1 -1.371408,1.42383" />
    <path
       transform="rotate(90)"
       style="opacity:0.61;fill:none;stroke:#00ff00;stroke-width:0.2"
       id="path108-6-4"
       sodipodi:type="arc"
       sodipodi:cx="59.07502"
       sodipodi:cy="-32.732864"
       sodipodi:rx="1.3999946"
       sodipodi:ry="1.3999989"
       sodipodi:start="1.5626928"
       sodipodi:end="1.5505243"
       sodipodi:open="true"
       sodipodi:arc-type="arc"
       d="m 59.086365,-31.332911 a 1.3999946,1.3999989 0 0 1 -1.411253,-1.38435 1.3999946,1.3999989 0 0 1 1.380046,-1.415461 1.3999946,1.3999989 0 0 1 1.419649,1.375737 1.3999946,1.3999989 0 0 1 -1.371408,1.423832" />
    <path
       style="stroke:#ff00ff;stroke-width:0.264584"
       id="path10"
       d="M 33.240121,28.455114"
       class="st1" />
    <path
       d="m -91.915523,43.817589 a 1.5489155,1.5503788 0 0 1 -0.419047,2.151384 1.5489155,1.5503788 0 0 1 -2.149612,-0.418117 1.5489155,1.5503788 0 0 1 0.416398,-2.1519 1.5489155,1.5503788 0 0 1 2.150124,0.415464"
       style="opacity:0.61;fill:none;stroke:#00ff00;stroke-width:0.2"
       id="path417"
       sodipodi:type="arc"
       sodipodi:cx="-93.200386"
       sodipodi:cy="44.68343"
       sodipodi:rx="1.5489155"
       sodipodi:ry="1.5503788"
       sodipodi:start="5.6906444"
       sodipodi:end="5.6881786"
       sodipodi:arc-type="arc"
       sodipodi:open="true"
       transform="rotate(-90)" />
    <path
       d="m -122.71362,43.817589 a 1.5489155,1.5503788 0 0 1 -0.41905,2.151384 1.5489155,1.5503788 0 0 1 -2.14961,-0.418117 1.5489155,1.5503788 0 0 1 0.4164,-2.1519 1.5489155,1.5503788 0 0 1 2.15012,0.415464"
       sodipodi:open="true"
       sodipodi:arc-type="arc"
       sodipodi:end="5.6881786"
       sodipodi:start="5.6906444"
       sodipodi:ry="1.5503788"
       sodipodi:rx="1.5489155"
       sodipodi:cy="44.68343"
       sodipodi:cx="-123.99848"
       sodipodi:type="arc"
       id="path417-9"
       style="opacity:0.61;fill:none;stroke:#00ff00;stroke-width:0.2"
       transform="rotate(-90)" />
    <path
       d="m -91.906124,118.77478 a 1.5489155,1.5503788 0 0 1 -0.419047,2.15138 1.5489155,1.5503788 0 0 1 -2.149611,-0.41812 1.5489155,1.5503788 0 0 1 0.416397,-2.1519 1.5489155,1.5503788 0 0 1 2.150125,0.41547"
       sodipodi:open="true"
       sodipodi:arc-type="arc"
       sodipodi:end="5.6881786"
       sodipodi:start="5.6906444"
       sodipodi:ry="1.5503788"
       sodipodi:rx="1.5489155"
       sodipodi:cy="119.64062"
       sodipodi:cx="-93.190987"
       sodipodi:type="arc"
       id="path417-5"
       style="opacity:0.61;fill:none;stroke:#00ff00;stroke-width:0.2"
       transform="rotate(-90)" />
    <path
       d="m -122.71362,118.63945 a 1.5489155,1.5503788 0 0 1 -0.41905,2.15138 1.5489155,1.5503788 0 0 1 -2.14961,-0.41812 1.5489155,1.5503788 0 0 1 0.4164,-2.1519 1.5489155,1.5503788 0 0 1 2.15012,0.41547"
       sodipodi:open="true"
       sodipodi:arc-type="arc"
       sodipodi:end="5.6881786"
       sodipodi:start="5.6906444"
       sodipodi:ry="1.5503788"
       sodipodi:rx="1.5489155"
       sodipodi:cy="119.50529"
       sodipodi:cx="-123.99848"
       sodipodi:type="arc"
       id="path417-2"
       style="opacity:0.61;fill:none;stroke:#00ff00;stroke-width:0.2"
       transform="rotate(-90)" />
    <path
       id="rect70-8"
       style="opacity:0.61;fill:none;stroke:#000000;stroke-width:0.2;stroke-miterlimit:4;stroke-dasharray:none"
       d="M -10.451075,28.057836 H -0.45089764 V 12.557986 H -10.451075 v 2.7999 h -2.966845 v 9.9 h 2.966845 z"
       sodipodi:nodetypes="ccccccccc" />
    <path
       id="rect70-5"
       style="opacity:0.61;fill:none;stroke:#000000;stroke-width:0.2;stroke-miterlimit:4;stroke-dasharray:none"
       d="M -10.451075,45.243631 H -0.45089764 V 29.743781 H -10.451075 v 2.7999 h -2.966845 v 9.9 h 2.966845 z"
       sodipodi:nodetypes="ccccccccc" />
    <path
       sodipodi:nodetypes="ccccccccc"
       d="M -9.9557605,62.729881 H 0.04441735 V 47.230031 H -9.9557605 v 2.7999 h -2.9668445 v 9.9 h 2.9668445 z"
       style="opacity:0.61;fill:none;stroke:#000000;stroke-width:0.2;stroke-miterlimit:4;stroke-dasharray:none"
       id="rect70-5-6" />
    <path
       sodipodi:nodetypes="ccccccccc"
       d="M -9.7081033,80.31356 H 0.2920747 V 64.81371 h -10.000178 v 2.7999 h -2.9668447 v 9.9 h 2.9668447 z"
       style="opacity:0.61;fill:none;stroke:#000000;stroke-width:0.2;stroke-miterlimit:4;stroke-dasharray:none"
       id="rect70-5-61" />
    <path
       sodipodi:nodetypes="ccccccccc"
       d="m -8.9651308,97.897239 h 10.000178 v -15.49985 h -10.000178 v 2.7999 h -2.9668452 v 9.9 h 2.9668452 z"
       style="opacity:0.61;fill:none;stroke:#000000;stroke-width:0.2;stroke-miterlimit:4;stroke-dasharray:none"
       id="rect70-5-5" />
    <path
       sodipodi:nodetypes="ccccccccc"
       d="M -9.4604455,115.72858 H 0.53973253 V 100.22873 H -9.4604455 v 2.7999 H -12.42729 v 9.9 h 2.9668445 z"
       style="opacity:0.61;fill:none;stroke:#000000;stroke-width:0.2;stroke-miterlimit:4;stroke-dasharray:none"
       id="rect70-5-63" />
    <path
       d="m 30.868284,-49.958167 a 1.3999946,1.3999989 0 0 1 -1.411252,-1.384349 1.3999946,1.3999989 0 0 1 1.380045,-1.415462 1.3999946,1.3999989 0 0 1 1.419649,1.375737 1.3999946,1.3999989 0 0 1 -1.371408,1.423832"
       sodipodi:arc-type="arc"
       sodipodi:open="true"
       sodipodi:end="1.5505243"
       sodipodi:start="1.5626928"
       sodipodi:ry="1.3999989"
       sodipodi:rx="1.3999946"
       sodipodi:cy="-51.35812"
       sodipodi:cx="30.856939"
       sodipodi:type="arc"
       id="path108-6-4-6"
       style="opacity:0.61;fill:none;stroke:#00ff00;stroke-width:0.2"
       transform="rotate(90)" />
    <path
       d="m 30.868284,-109.85816 a 1.3999946,1.3999989 0 0 1 -1.411252,-1.38435 1.3999946,1.3999989 0 0 1 1.380045,-1.41547 1.3999946,1.3999989 0 0 1 1.419649,1.37574 1.3999946,1.3999989 0 0 1 -1.371408,1.42383"
       style="opacity:0.61;fill:none;stroke:#00ff00;stroke-width:0.2"
       id="path108-6-6"
       sodipodi:type="arc"
       sodipodi:cx="30.856939"
       sodipodi:cy="-111.25812"
       sodipodi:rx="1.3999946"
       sodipodi:ry="1.3999989"
       sodipodi:start="1.5626928"
       sodipodi:end="1.5505243"
       sodipodi:open="true"
       sodipodi:arc-type="arc"
       transform="rotate(90)" />
    <path
       d="m 85.768295,-68.858172 a 1.3999946,1.3999989 0 0 1 -1.411252,-1.38435 1.3999946,1.3999989 0 0 1 1.380045,-1.415461 1.3999946,1.3999989 0 0 1 1.419649,1.375737 1.3999946,1.3999989 0 0 1 -1.371408,1.423832"
       sodipodi:arc-type="arc"
       sodipodi:open="true"
       sodipodi:end="1.5505243"
       sodipodi:start="1.5626928"
       sodipodi:ry="1.3999989"
       sodipodi:rx="1.3999946"
       sodipodi:cy="-70.258125"
       sodipodi:cx="85.75695"
       sodipodi:type="arc"
       id="path108-8"
       style="opacity:0.61;fill:none;stroke:#00ff00;stroke-width:0.2"
       transform="rotate(90)" />
    <rect
       style="opacity:0.61;fill:none;stroke:#00ff00;stroke-width:0.2"
       id="rect163-6-0"
       width="2.8"
       height="10"
       x="156.93135"
       y="18.599611" />
    <rect
       style="opacity:0.61;fill:none;stroke:#00ff00;stroke-width:0.2"
       id="rect163-2-9-0-6"
       width="2.8"
       height="10"
       x="156.93135"
       y="94.217239" />
    <path
       d="m 147.27011,62.7968 a 3.8999848,3.899986 0 0 1 -3.93134,-3.856391 3.8999848,3.899986 0 0 1 3.84441,-3.94306 3.8999848,3.899986 0 0 1 3.95474,3.8324 3.8999848,3.899986 0 0 1 -3.82035,3.966378"
       sodipodi:arc-type="arc"
       sodipodi:open="true"
       sodipodi:end="1.5505243"
       sodipodi:start="1.5626928"
       sodipodi:ry="3.899986"
       sodipodi:rx="3.8999848"
       sodipodi:cy="58.896942"
       sodipodi:cx="147.23851"
       sodipodi:type="arc"
       id="path57"
       style="opacity:0.61;fill:none;stroke:#00ff00;stroke-width:0.2" />
  </g>
</svg>
